# Blender 4.0.2
# www.blender.org
mtllib Garlic2.mtl
o Garlic
v 1.080029 0.314322 -1.079890
v 0.000674 0.348257 -1.527194
v -1.078684 0.382192 -1.079891
v -1.525768 0.396249 -0.000000
v -1.078685 0.382193 1.079890
v 0.000673 0.348259 1.527194
v 1.080029 0.314323 1.079891
v 1.527113 0.300266 -0.000000
v 1.315157 0.128190 -0.906084
v 1.570482 0.120164 -0.289370
v 0.289717 0.160430 -1.570768
v 0.906127 0.141050 -1.315317
v -0.905146 0.197997 -1.315317
v -0.288738 0.178616 -1.570768
v -1.569503 0.218885 -0.289371
v -1.314179 0.210857 -0.906084
v -1.314179 0.210858 0.906084
v -1.569503 0.218885 0.289371
v -0.288740 0.178619 1.570768
v -0.905147 0.197998 1.315317
v 0.906127 0.141052 1.315317
v 0.289717 0.160432 1.570768
v 1.570482 0.120164 0.289372
v 1.315157 0.128192 0.906085
v 1.536752 2.955502 -0.308881
v 1.495551 2.752438 -0.000012
v 1.304943 2.946811 -0.868893
v 1.057632 2.736018 -1.057967
v 0.818042 2.927161 -1.326620
v 0.359362 2.908182 -1.516771
v 0.000574 2.692280 -1.496182
v -0.370201 2.877399 -1.512001
v -0.805853 2.858673 -1.331380
v -1.056408 2.646846 -1.057959
v -1.318602 2.836080 -0.834011
v -1.521457 2.826573 -0.343740
v -1.494148 2.626330 0.000001
v -1.517761 2.825379 0.352549
v -1.322095 2.832715 0.825248
v -1.056227 2.642750 1.057957
v -0.847753 2.851775 1.313933
v -0.327813 2.873289 1.529482
v 0.000831 2.686488 1.496172
v 0.339878 2.901461 1.524966
v 0.838016 2.922873 1.318438
v 1.057814 2.731922 1.057948
v 1.313835 2.943856 0.847766
v 1.528063 2.953897 0.330008
v 0.839208 3.123911 -0.345455
v 0.653823 3.112999 -0.000562
v 0.464390 3.107808 -0.458101
v 0.351692 3.108405 -0.833250
v 0.007122 3.092430 -0.647634
v -0.337711 3.084331 -0.833275
v -0.450120 3.075874 -0.458135
v -0.825158 3.065793 -0.345517
v -0.639489 3.067838 -0.000610
v -0.825108 3.063650 0.344303
v -0.450055 3.073030 0.456929
v -0.337592 3.079156 0.832098
v 0.007214 3.088408 0.646461
v 0.351812 3.103230 0.832123
v 0.464455 3.104964 0.456962
v 0.839258 3.121768 0.344365
v 0.208644 3.469985 -0.214193
v 0.292612 3.478105 0.000530
v -0.005408 3.452826 -0.298509
v -0.219552 3.436951 -0.214168
v -0.303745 3.432098 0.000565
v -0.219779 3.440218 0.215289
v -0.005725 3.457377 0.299604
v 0.208418 3.473252 0.215263
v 0.952101 -0.000000 -0.394132
v 0.394714 -0.000000 -0.951520
v -0.393551 -0.000000 -0.951520
v -0.950939 -0.000000 -0.394133
v -0.950939 0.000000 0.394133
v -0.393552 0.000000 0.951520
v 0.394714 0.000000 0.951520
v 0.952101 0.000000 0.394133
v 0.453713 0.003844 -0.453131
v 0.000581 0.003844 -0.640825
v -0.452552 0.003844 -0.453132
v -0.640245 0.003844 -0.000000
v -0.452552 0.003844 0.453132
v 0.000581 0.003844 0.640825
v 0.453713 0.003844 0.453132
v 0.641406 0.003844 -0.000000
v 1.890506 2.086248 -1.175306
v 1.960218 0.930303 -1.216136
v 2.245474 0.918769 -0.526898
v 2.166826 2.101229 -0.507228
v 0.507130 2.011245 -2.169364
v 0.527003 0.988257 -2.246777
v 1.215678 0.960409 -1.961286
v 1.174227 2.047413 -1.892637
v -1.172940 1.920157 -1.892638
v -1.214611 1.058682 -1.961287
v -0.525935 1.030834 -2.246778
v -0.505841 1.956325 -2.169364
v -2.165540 1.866341 -0.507230
v -2.244410 1.100326 -0.526901
v -1.959152 1.088790 -1.216138
v -1.889219 1.881323 -1.175308
v -1.889220 1.881323 1.175307
v -1.959152 1.088792 1.216137
v -2.244410 1.100327 0.526899
v -2.165540 1.866341 0.507229
v -0.505843 1.956325 2.169365
v -0.525939 1.030839 2.246778
v -1.214612 1.058686 1.961286
v -1.172940 1.920157 1.892638
v 1.174226 2.047413 1.892638
v 1.215676 0.960413 1.961287
v 0.527002 0.988261 2.246778
v 0.507129 2.011245 2.169365
v 2.166826 2.101229 0.507230
v 2.245474 0.918770 0.526900
v 1.960217 0.930305 1.216137
v 1.890505 2.086248 1.175308
v 1.332128 2.058280 -1.333562
v 1.381911 0.956076 -1.382408
v 0.000520 1.986084 -1.885942
v 0.000630 1.011930 -1.955020
v -1.331088 1.913889 -1.333564
v -1.380651 1.067785 -1.382410
v -1.882659 1.883984 -0.000000
v -1.952796 1.090922 -0.000000
v -1.331091 1.913889 1.333563
v -1.380653 1.067788 1.382409
v 0.000518 1.986084 1.885943
v 0.000629 1.011934 1.955021
v 1.332126 2.058280 1.333564
v 1.381909 0.956078 1.382410
v 1.883696 2.088184 -0.000000
v 1.954053 0.932941 -0.000000
v 0.000581 0.003844 -0.000000
v 0.091246 4.504989 -0.171645
v 0.198553 4.546949 0.000745
v 0.000948 4.502782 -0.240705
v -0.089665 4.520477 -0.174053
v -0.176135 4.456718 -0.000737
v -0.090346 4.549523 0.171559
v 0.000000 4.543236 0.240636
v 0.090566 4.534035 0.173967
v 0.000467 4.523299 0.003419
vn 0.2913 0.8748 0.3873
vn 0.2388 0.9644 -0.1138
vn -0.0759 0.8658 -0.4946
vn 0.4683 0.8836 0.0069
vn 0.0763 0.9571 -0.2795
vn -0.3825 0.8602 -0.3374
vn 0.3178 0.8783 -0.3572
vn -0.1572 0.9467 -0.2811
vn -0.5198 0.8543 -0.0007
vn -0.0217 0.8649 -0.5015
vn -0.3230 0.9393 -0.1154
vn -0.3743 0.8540 0.3615
vn -0.3781 0.8560 -0.3526
vn -0.3217 0.9394 0.1186
vn -0.0265 0.8648 0.5014
vn -0.5243 0.8512 -0.0236
vn -0.1559 0.9468 0.2817
vn 0.3421 0.8748 0.3429
vn -0.3923 0.8581 0.3312
vn 0.0750 0.9571 0.2800
vn 0.4697 0.8827 -0.0171
vn -0.0623 0.8677 0.4931
vn 0.2375 0.9643 0.1170
vn 0.3001 0.8789 -0.3707
vn 0.6595 0.6514 0.3751
vn 0.1960 0.6392 -0.7436
vn 0.7230 0.6561 -0.2162
vn 0.1194 0.8691 -0.4800
vn 0.3443 0.6594 -0.6683
vn -0.7527 0.6235 -0.2115
vn -0.2361 0.6430 -0.7286
vn -0.4874 0.8561 -0.1718
vn -0.4962 0.8530 0.1618
vn -0.2370 0.6334 0.7366
vn -0.7565 0.6170 0.2167
vn 0.3472 0.6488 0.6772
vn -0.3917 0.6229 0.6772
vn 0.7267 0.6504 0.2212
vn 0.1974 0.6301 0.7510
vn 0.6595 0.6536 -0.3712
vn 0.2058 -0.9737 -0.0979
vn 0.0785 -0.9617 -0.2625
vn -0.1530 -0.9423 -0.2977
vn -0.3506 -0.9270 -0.1331
vn -0.3506 -0.9270 0.1331
vn -0.1530 -0.9423 0.2977
vn 0.0785 -0.9617 0.2625
vn 0.2058 -0.9737 0.0979
vn -0.0962 -0.8979 -0.4295
vn 0.4281 -0.9001 0.0814
vn -0.3869 -0.8821 -0.2688
vn 0.3706 -0.8851 -0.2816
vn -0.4954 -0.8662 0.0650
vn 0.0508 -0.8683 -0.4934
vn -0.3221 -0.8603 0.3951
vn -0.3221 -0.8603 -0.3951
vn 0.0508 -0.8683 0.4934
vn -0.4954 -0.8662 -0.0650
vn 0.3706 -0.8851 0.2816
vn -0.3869 -0.8821 0.2688
vn 0.4281 -0.9001 -0.0814
vn -0.0962 -0.8979 0.4295
vn 0.2256 -0.9051 -0.3604
vn 0.2256 -0.9051 0.3604
vn 0.2741 0.0526 -0.9603
vn 0.9218 0.0684 -0.3816
vn 0.8730 0.0516 0.4850
vn -0.4857 0.0591 -0.8721
vn 0.3816 0.0749 -0.9213
vn 0.9602 0.0547 -0.2738
vn -0.9593 0.0701 -0.2735
vn -0.3820 0.0884 -0.9199
vn 0.4851 0.0622 -0.8723
vn -0.8718 0.0772 0.4837
vn -0.9193 0.1025 -0.3801
vn -0.2745 0.0725 -0.9588
vn -0.2745 0.0725 0.9588
vn -0.9193 0.1025 0.3801
vn -0.8718 0.0772 -0.4837
vn 0.4851 0.0622 0.8723
vn -0.3820 0.0884 0.9199
vn -0.9593 0.0701 0.2735
vn 0.9602 0.0547 0.2738
vn 0.3816 0.0749 0.9213
vn -0.4857 0.0591 0.8721
vn 0.8730 0.0516 -0.4850
vn 0.9218 0.0684 0.3816
vn 0.2741 0.0526 0.9603
vn 0.6857 -0.6660 -0.2938
vn 0.7288 0.6089 -0.3133
vn 0.2688 -0.6556 -0.7057
vn 0.2826 0.5958 -0.7518
vn -0.3136 -0.6409 -0.7007
vn -0.3370 0.5781 -0.7431
vn -0.7205 -0.6304 -0.2888
vn -0.7659 0.5662 -0.3048
vn -0.7205 -0.6304 0.2888
vn -0.7649 0.5671 0.3054
vn -0.3136 -0.6409 0.7007
vn -0.3358 0.5804 0.7418
vn 0.2688 -0.6556 0.7057
vn 0.2816 0.5981 0.7503
vn 0.6857 -0.6660 0.2938
vn 0.7277 0.6098 0.3139
vn 0.2201 -0.4997 -0.8378
vn 0.8292 -0.5040 -0.2418
vn -0.4372 -0.4890 -0.7548
vn 0.4069 -0.4952 -0.7676
vn -0.8443 -0.4800 -0.2382
vn -0.2595 -0.4845 -0.8354
vn -0.7735 -0.4781 0.4161
vn -0.7735 -0.4781 -0.4161
vn -0.2595 -0.4845 0.8354
vn -0.8443 -0.4800 0.2382
vn 0.4069 -0.4952 0.7676
vn -0.4372 -0.4890 0.7548
vn 0.8292 -0.5040 0.2418
vn 0.2201 -0.4997 0.8378
vn 0.7492 -0.5058 -0.4277
vn 0.7492 -0.5058 0.4277
vn 0.3891 0.4638 0.7959
vn -0.8545 0.4459 0.2666
vn -0.3062 0.4631 0.8317
vn -0.8041 0.4550 -0.3826
vn -0.8036 0.4500 0.3895
vn -0.3024 0.4572 -0.8364
vn -0.8365 0.4657 -0.2887
vn 0.3581 0.4839 -0.7985
vn -0.4063 0.4715 -0.7827
vn 0.8230 0.4892 -0.2887
vn 0.2349 0.4561 -0.8584
vn 0.7747 0.4632 0.4305
vn 0.7754 0.4765 -0.4144
vn 0.2451 0.4702 0.8479
vn 0.8319 0.4803 0.2779
vn -0.4197 0.4634 0.7805
vn 0.0034 -1.0000 -0.0014
vn 0.0034 -1.0000 0.0014
vn -0.0014 -1.0000 0.0034
vn -0.0014 -1.0000 -0.0034
vn 0.0014 -1.0000 0.0034
vn -0.0034 -1.0000 -0.0014
vn -0.0034 -1.0000 0.0014
vn 0.0014 -1.0000 -0.0034
vn 0.8871 0.0983 -0.4510
vn 0.4456 0.0667 -0.8927
vn -0.4426 0.0693 -0.8941
vn -0.9165 0.1190 -0.3820
vn -0.9203 0.1187 0.3727
vn -0.4509 0.0694 0.8899
vn 0.4420 0.0649 0.8947
vn 0.8901 0.0972 0.4454
vn -0.1642 0.9841 0.0677
vn -0.2395 0.8626 -0.4456
vn -0.3894 0.6339 -0.6683
vn 0.4379 0.8755 -0.2044
vn 0.4467 0.8732 0.1949
vn 0.1282 0.8633 0.4881
vn -0.2474 0.8560 0.4539
vn -0.6851 0.6303 0.3651
vn -0.6851 0.6327 -0.3610
vn -0.0580 0.9893 -0.1335
vn -0.1531 0.9605 -0.2325
vn -0.0577 0.9978 -0.0323
vt 0.325799 0.420870
vt 0.354254 0.424922
vt 0.366127 0.484087
vt 0.324617 0.497061
vt 0.409049 0.428069
vt 0.437643 0.428553
vt 0.393180 0.508516
vt 0.462411 0.437960
vt 0.442189 0.508842
vt 0.512868 0.450886
vt 0.540050 0.462385
vt 0.466785 0.535557
vt 0.894060 0.553209
vt 0.867993 0.564282
vt 0.800467 0.507348
vt 0.823424 0.480098
vt 0.821840 0.581753
vt 0.796413 0.591120
vt 0.752762 0.507777
vt 0.767970 0.591024
vt 0.726446 0.532602
vt 0.713661 0.594863
vt 0.685505 0.598953
vt 0.686398 0.518521
vt 0.657479 0.594326
vt 0.646078 0.531820
vt 0.603235 0.589474
vt 0.574748 0.588988
vt 0.620185 0.506512
vt 0.549506 0.579176
vt 0.572528 0.505146
vt 0.503677 0.560821
vt 0.477884 0.549146
vt 0.550202 0.477408
vt 0.110310 0.455338
vt 0.137808 0.444655
vt 0.206733 0.505094
vt 0.181358 0.531026
vt 0.188675 0.433369
vt 0.213731 0.424799
vt 0.255660 0.506283
vt 0.242366 0.425216
vt 0.283562 0.482701
vt 0.297271 0.423934
vt 0.323878 0.543260
vt 0.351095 0.546531
vt 0.370260 0.556859
vt 0.785368 0.467861
vt 0.731877 0.458596
vt 0.713409 0.470364
vt 0.686870 0.473712
vt 0.660455 0.469647
vt 0.588147 0.465926
vt 0.642224 0.457554
vt 0.222092 0.545343
vt 0.277413 0.556094
vt 0.296693 0.546038
vt 0.410873 0.169388
vt 0.355959 0.173403
vt 0.370397 0.122544
vt 0.518466 0.128310
vt 0.464829 0.158243
vt 0.447480 0.105613
vt 0.817347 0.848156
vt 0.869209 0.876729
vt 0.798403 0.900372
vt 0.709452 0.830198
vt 0.764310 0.833387
vt 0.721994 0.882484
vt 0.601847 0.831658
vt 0.656755 0.829638
vt 0.643115 0.881645
vt 0.496065 0.872772
vt 0.548517 0.845300
vt 0.566350 0.897909
vt 0.195304 0.153962
vt 0.142640 0.122350
vt 0.214321 0.101907
vt 0.303645 0.172570
vt 0.248883 0.166810
vt 0.290835 0.121278
vt 0.438796 0.169151
vt 0.392702 0.088695
vt 0.525177 0.096344
vt 0.431829 0.061249
vt 0.875926 0.908038
vt 0.782585 0.944438
vt 0.791506 0.834614
vt 0.743907 0.916218
vt 0.683140 0.826396
vt 0.682165 0.918904
vt 0.574635 0.832308
vt 0.620495 0.914908
vt 0.488686 0.903932
vt 0.581230 0.942301
vt 0.136949 0.090184
vt 0.231382 0.058060
vt 0.220980 0.165687
vt 0.269617 0.086736
vt 0.329769 0.175098
vt 0.331212 0.084520
vt 0.421970 0.342054
vt 0.420127 0.252209
vt 0.461053 0.244763
vt 0.462115 0.353081
vt 0.367419 0.344152
vt 0.368721 0.253670
vt 0.326905 0.353105
vt 0.328613 0.247540
vt 0.576239 0.344411
vt 0.556812 0.236426
vt 0.597322 0.212020
vt 0.627662 0.309243
vt 0.510524 0.342660
vt 0.505785 0.247104
vt 0.865348 0.679893
vt 0.854645 0.755071
vt 0.811360 0.755193
vt 0.817325 0.669830
vt 0.929667 0.675711
vt 0.908822 0.770603
vt 0.981255 0.707655
vt 0.946466 0.799335
vt 0.723631 0.684837
vt 0.723032 0.742606
vt 0.683952 0.749054
vt 0.684751 0.672110
vt 0.777704 0.682055
vt 0.773159 0.744474
vt 0.591638 0.680054
vt 0.594873 0.742567
vt 0.556466 0.752473
vt 0.552307 0.666971
vt 0.645627 0.684000
vt 0.645020 0.741771
vt 0.439904 0.670535
vt 0.458720 0.765834
vt 0.420474 0.793762
vt 0.387647 0.701372
vt 0.504109 0.676048
vt 0.513204 0.751442
vt 0.143773 0.336891
vt 0.151543 0.241497
vt 0.196323 0.240563
vt 0.191797 0.348847
vt 0.078057 0.336559
vt 0.100881 0.229220
vt 0.027770 0.299783
vt 0.061163 0.203548
vt 0.286708 0.342864
vt 0.288326 0.252386
vt 0.232258 0.339051
vt 0.236992 0.249295
vt 0.556070 0.133599
vt 0.905484 0.873946
vt 0.459859 0.869221
vt 0.104884 0.126454
vt 0.418813 0.613874
vt 0.952069 0.619591
vt 0.600084 0.399554
vt 0.052584 0.391028
vt 0.635507 0.971647
vt 0.727696 0.972627
vt 0.377676 0.031776
vt 0.286454 0.030324
vt 0.341557 0.639723
vt 0.323847 0.643596
vt 0.351255 0.642411
vt 0.704006 0.372541
vt 0.713381 0.369503
vt 0.687651 0.378581
vt 0.671699 0.369925
vt 0.662497 0.365807
vt 0.306151 0.642019
vt 0.296989 0.646667
vt 0.692502 0.359834
vt 0.425340 0.548367
vt 0.335982 0.656652
vt 0.684006 0.359223
vt 0.313876 0.657629
s 0
usemtl blinn1SG
f 26/1/1 25/2/1 49/3/1 50/4/1
f 25/2/2 27/5/2 49/3/2
f 27/5/3 28/6/3 51/7/3 49/3/3
f 28/6/4 29/8/4 52/9/4 51/7/4
f 29/8/5 30/10/5 52/9/5
f 30/10/6 31/11/6 53/12/6 52/9/6
f 31/13/7 32/14/7 54/15/7 53/16/7
f 32/14/8 33/17/8 54/15/8
f 33/17/9 34/18/9 55/19/9 54/15/9
f 34/18/10 35/20/10 56/21/10 55/19/10
f 35/20/11 36/22/11 56/21/11
f 36/22/12 37/23/12 57/24/12 56/21/12
f 37/23/13 38/25/13 58/26/13 57/24/13
f 38/25/14 39/27/14 58/26/14
f 39/27/15 40/28/15 59/29/15 58/26/15
f 40/28/16 41/30/16 60/31/16 59/29/16
f 41/30/17 42/32/17 60/31/17
f 42/32/18 43/33/18 61/34/18 60/31/18
f 43/35/19 44/36/19 62/37/19 61/38/19
f 44/36/20 45/39/20 62/37/20
f 45/39/21 46/40/21 63/41/21 62/37/21
f 46/40/22 47/42/22 64/43/22 63/41/22
f 47/42/23 48/44/23 64/43/23
f 48/44/24 26/1/24 50/4/24 64/43/24
f 50/4/25 49/3/25 66/45/25
f 49/3/26 51/7/26 65/46/26
f 51/7/27 52/9/27 65/46/27
f 52/9/28 67/47/28 65/46/28
f 53/48/29 54/15/29 67/49/29
f 54/15/30 55/19/30 68/50/30
f 55/19/31 56/21/31 68/50/31
f 56/21/32 69/51/32 68/50/32
f 69/51/33 58/26/33 70/52/33
f 58/26/34 59/29/34 70/52/34
f 59/29/35 60/31/35 70/52/35
f 60/31/36 61/53/36 71/54/36
f 61/55/37 62/37/37 71/56/37
f 62/37/38 63/41/38 72/57/38
f 63/41/39 64/43/39 72/57/39
f 64/43/40 50/4/40 66/45/40
f 9/58/41 10/59/41 73/60/41
f 11/61/42 12/62/42 74/63/42
f 13/64/43 14/65/43 75/66/43
f 15/67/44 16/68/44 76/69/44
f 17/70/45 18/71/45 77/72/45
f 19/73/46 20/74/46 78/75/46
f 21/76/47 22/77/47 79/78/47
f 23/79/48 24/80/48 80/81/48
f 1/82/49 9/58/49 73/60/49 81/83/49
f 12/62/50 1/82/50 81/83/50 74/63/50
f 2/84/51 11/61/51 74/63/51 82/85/51
f 14/65/52 2/86/52 82/87/52 75/66/52
f 3/88/53 13/64/53 75/66/53 83/89/53
f 16/68/54 3/88/54 83/89/54 76/69/54
f 4/90/55 15/67/55 76/69/55 84/91/55
f 18/71/56 4/90/56 84/91/56 77/72/56
f 5/92/57 17/70/57 77/72/57 85/93/57
f 20/74/58 5/92/58 85/93/58 78/75/58
f 6/94/59 19/73/59 78/75/59 86/95/59
f 22/77/60 6/96/60 86/97/60 79/78/60
f 7/98/61 21/76/61 79/78/61 87/99/61
f 24/80/62 7/98/62 87/99/62 80/81/62
f 8/100/63 23/79/63 80/81/63 88/101/63
f 10/59/64 8/100/64 88/101/64 73/60/64
f 89/102/65 90/103/65 122/104/65 121/105/65
f 90/103/66 89/102/66 92/106/66 91/107/66
f 91/107/67 92/106/67 135/108/67 136/109/67
f 93/110/68 94/111/68 124/112/68 123/113/68
f 94/111/69 93/110/69 96/114/69 95/115/69
f 95/115/70 96/114/70 121/105/70 122/104/70
f 97/116/71 98/117/71 126/118/71 125/119/71
f 98/117/72 97/116/72 100/120/72 99/121/72
f 99/121/73 100/120/73 123/122/73 124/123/73
f 101/124/74 102/125/74 128/126/74 127/127/74
f 102/125/75 101/124/75 104/128/75 103/129/75
f 103/129/76 104/128/76 125/119/76 126/118/76
f 105/130/77 106/131/77 130/132/77 129/133/77
f 106/131/78 105/130/78 108/134/78 107/135/78
f 107/135/79 108/134/79 127/127/79 128/126/79
f 109/136/80 110/137/80 132/138/80 131/139/80
f 110/137/81 109/136/81 112/140/81 111/141/81
f 111/141/82 112/140/82 129/133/82 130/132/82
f 113/142/83 114/143/83 134/144/83 133/145/83
f 114/143/84 113/142/84 116/146/84 115/147/84
f 115/147/85 116/146/85 131/148/85 132/149/85
f 117/150/86 118/151/86 136/109/86 135/108/86
f 118/151/87 117/150/87 120/152/87 119/153/87
f 119/153/88 120/152/88 133/145/88 134/144/88
f 10/59/89 9/58/89 90/103/89 91/107/89
f 92/106/90 89/102/90 27/5/90 25/2/90
f 12/62/91 11/61/91 94/111/91 95/115/91
f 96/114/92 93/110/92 30/10/92 29/8/92
f 14/65/93 13/64/93 98/117/93 99/121/93
f 100/120/94 97/116/94 33/17/94 32/14/94
f 16/68/95 15/67/95 102/125/95 103/129/95
f 104/128/96 101/124/96 36/22/96 35/20/96
f 18/71/97 17/70/97 106/131/97 107/135/97
f 108/134/98 105/130/98 39/27/98 38/25/98
f 20/74/99 19/73/99 110/137/99 111/141/99
f 112/140/100 109/136/100 42/32/100 41/30/100
f 22/77/101 21/76/101 114/143/101 115/147/101
f 116/146/102 113/142/102 45/39/102 44/36/102
f 24/80/103 23/79/103 118/151/103 119/153/103
f 120/152/104 117/150/104 48/44/104 47/42/104
f 9/58/105 1/82/105 122/104/105 90/103/105
f 1/82/106 12/62/106 95/115/106 122/104/106
f 11/61/107 2/154/107 124/112/107 94/111/107
f 2/155/108 14/65/108 99/121/108 124/123/108
f 13/64/109 3/88/109 126/118/109 98/117/109
f 3/88/110 16/68/110 103/129/110 126/118/110
f 15/67/111 4/90/111 128/126/111 102/125/111
f 4/90/112 18/71/112 107/135/112 128/126/112
f 17/70/113 5/92/113 130/132/113 106/131/113
f 5/92/114 20/74/114 111/141/114 130/132/114
f 19/73/115 6/156/115 132/138/115 110/137/115
f 6/157/116 22/77/116 115/147/116 132/149/116
f 21/76/117 7/98/117 134/144/117 114/143/117
f 7/98/118 24/80/118 119/153/118 134/144/118
f 23/79/119 8/100/119 136/109/119 118/151/119
f 8/100/120 10/59/120 91/107/120 136/109/120
f 109/136/121 131/158/121 43/33/121 42/32/121
f 129/133/122 112/140/122 41/30/122 40/28/122
f 105/130/123 129/133/123 40/28/123 39/27/123
f 127/127/124 108/134/124 38/25/124 37/23/124
f 101/124/125 127/127/125 37/23/125 36/22/125
f 125/119/126 104/128/126 35/20/126 34/18/126
f 97/116/127 125/119/127 34/18/127 33/17/127
f 123/159/128 100/120/128 32/14/128 31/13/128
f 93/110/129 123/160/129 31/11/129 30/10/129
f 121/105/130 96/114/130 29/8/130 28/6/130
f 89/102/131 121/105/131 28/6/131 27/5/131
f 135/108/132 92/106/132 25/2/132 26/1/132
f 117/150/133 135/108/133 26/1/133 48/44/133
f 133/145/134 120/152/134 47/42/134 46/40/134
f 113/142/135 133/145/135 46/40/135 45/39/135
f 131/161/136 116/146/136 44/36/136 43/35/136
f 84/91/137 137/162/137 85/93/137 77/72/137
f 83/89/138 137/163/138 84/91/138 76/69/138
f 81/83/139 137/164/139 82/85/139 74/63/139
f 86/97/140 137/165/140 87/99/140 79/78/140
f 82/87/141 137/163/141 83/89/141 75/66/141
f 87/99/142 137/165/142 88/101/142 80/81/142
f 81/83/143 73/60/143 88/101/143 137/164/143
f 85/93/144 137/162/144 86/95/144 78/75/144
f 66/45/145 65/46/145 138/166/145 139/167/145
f 65/46/146 67/47/146 140/168/146 138/166/146
f 67/49/147 68/50/147 141/169/147 140/170/147
f 68/50/148 69/51/148 142/171/148 141/169/148
f 69/51/149 70/52/149 143/172/149 142/171/149
f 70/52/150 71/54/150 144/173/150 143/172/150
f 71/56/151 72/57/151 145/174/151 144/175/151
f 72/57/152 66/45/152 139/167/152 145/174/152
f 142/171/153 146/176/153 140/170/153 141/169/153
f 67/49/154 54/15/154 68/50/154
f 52/9/155 53/177/155 67/47/155
f 66/45/156 49/3/156 65/46/156
f 64/43/157 66/45/157 72/57/157
f 71/56/158 62/37/158 72/57/158
f 60/31/159 71/54/159 70/52/159
f 56/21/160 57/24/160 69/51/160
f 57/24/161 58/26/161 69/51/161
f 146/178/162 139/167/162 138/166/162 140/168/162
f 144/173/163 146/179/163 142/171/163 143/172/163
f 145/174/164 139/167/164 146/180/164 144/175/164
